#!OML:ASF E:\emotionWalksFemale\Project 1\Capture day 1\Session 1\Female1.ASF
:FULLY-SPECIFIED
:DEGREES
2523
root 9.53572 15.2272 25.4834 -0.854292 12.8885 1.0896
lowerback 4.31746 -0.273236 -1.48187
upperback 0.27918 -0.407376 1.24576
thorax -2.1142 -0.183776 2.13689
lowerneck -6.66729 -2.44328 -7.2746
upperneck 47.9372 -2.13388 1.36707
head 20.0834 -1.86182 1.71231
rclavicle 3.11719e-014 -6.75868e-015
rhumerus -39.8346 0.565859 -79.3554
rradius 28.4411
rwrist 21.3142
rhand -7.12721 -48.7657
rfingers 7.12502
rthumb 18.7485 -77.8822
lclavicle 3.11719e-014 -6.75868e-015
lhumerus -36.3977 12.325 82.603
lradius 32.1291
lwrist -20.1277
lhand -1.75567 -29.8452
lfingers 7.12502
lthumb 23.9077 -1.31343
rfemur -19.1353 30.3455 15.5334
rtibia 15.7939
rfoot -42.2403 -45.5713
rtoes 28.843
lfemur 9.69909 -8.39014 -23.8933
ltibia 35.6688
lfoot -5.4654 -0.0269522
ltoes -5.47634
2524
root 9.50663 15.2465 25.5965 -1.01199 12.845 0.792826
lowerback 4.44382 -0.269742 -1.19557
upperback 0.296155 -0.387318 1.34147
thorax -2.16974 -0.175552 2.07416
lowerneck -6.71619 -2.41963 -7.26793
upperneck 47.983 -2.07702 1.33619
head 20.1268 -1.84254 1.7059
rclavicle -2.08227e-014 -2.78299e-015
rhumerus -39.6251 0.120046 -78.9945
rradius 28.4063
rwrist 22.5999
rhand -6.3858 -48.5973
rfingers 7.12502
rthumb 19.4615 -77.6433
lclavicle -2.08227e-014 -2.78299e-015
lhumerus -36.4242 12.3949 82.6809
lradius 32.3852
lwrist -20.181
lhand -1.36203 -29.468
lfingers 7.12502
lthumb 24.2852 -0.986194
rfemur -18.2096 29.3923 16.5572
rtibia 15.3706
rfoot -40.0761 -45.136
rtoes 26.5908
lfemur 9.09193 -7.61678 -23.0657
ltibia 37.2129
lfoot -3.92279 -0.534366
ltoes -4.19564
2525
root 9.47672 15.2696 25.7074 -1.02907 12.8511 0.667433
lowerback 4.51356 -0.24327 -1.02033
upperback 0.278985 -0.343519 1.33689
thorax -2.22947 -0.154734 1.96879
lowerneck -6.81187 -2.45355 -7.15817
upperneck 48.0678 -2.13767 1.30969
head 20.2182 -1.85069 1.6625
rclavicle 9.46712e-015 4.77083e-015
rhumerus -39.471 -0.262228 -78.7846
rradius 28.4921
rwrist 23.4814
rhand -5.04621 -49.8868
rfingers 7.12502
rthumb 20.749 -78.7975
lclavicle 9.46712e-015 4.77083e-015
lhumerus -36.5332 12.363 82.708
lradius 32.7369
lwrist -20.2864
lhand -0.765724 -29.3122
lfingers 7.12502
lthumb 24.8567 -0.908094
rfemur -17.5113 28.9377 17.1713
rtibia 15.0082
rfoot -39.2465 -44.5961
rtoes 25.5297
lfemur 8.1511 -6.98031 -22.4035
ltibia 38.7393
lfoot -1.82528 -0.888206
ltoes -0.269513
2526
root 9.44616 15.286 25.8155 -0.972995 12.9062 0.661461
lowerback 4.49727 -0.237268 -1.02316
upperback 0.281158 -0.335851 1.32666
thorax -2.21847 -0.151038 1.95923
lowerneck -6.94087 -2.49374 -7.02656
upperneck 48.085 -2.19337 1.23563
head 20.2675 -1.85747 1.59005
rclavicle 5.5287e-015 -1.55052e-014
rhumerus -39.2459 0.0303094 -78.9199
rradius 28.4921
rwrist 22.8573
rhand -4.6297 -50.9365
rfingers 7.12502
rthumb 21.1492 -79.803
lclavicle 5.5287e-015 -1.55052e-014
lhumerus -36.8508 12.1242 82.8082
lradius 33.3511
lwrist -20.0335
lhand -0.342507 -29.401
lfingers 7.12502
lthumb 25.2623 -1.05351
rfemur -16.894 28.3891 17.6175
rtibia 14.6965
rfoot -39.2733 -43.482
rtoes 25.8871
lfemur 7.33403 -6.44531 -21.9067
ltibia 40.2195
lfoot 0.10679 -1.1748
ltoes 1.60867
2527
root 9.41466 15.2994 25.9257 -0.990793 12.9064 0.602162
lowerback 4.53916 -0.238228 -1.07914
upperback 0.273067 -0.338329 1.40061
thorax -2.24943 -0.151033 2.06744
lowerneck -7.04169 -2.49055 -7.04684
upperneck 48.0884 -2.16776 1.22008
head 20.2991 -1.85279 1.58982
rclavicle -1.48343e-014 -9.93923e-015
rhumerus -39.0446 0.437494 -78.9835
rradius 28.4813
rwrist 22.125
rhand -6.02829 -50.0993
rfingers 7.12502
rthumb 19.8052 -79.1103
lclavicle -1.48343e-014 -9.93923e-015
lhumerus -37.0698 11.8655 82.9974
lradius 33.9124
lwrist -19.6657
lhand 0.0717336 -29.3009
lfingers 7.12502
lthumb 25.6591 -1.01006
rfemur -16.2283 27.38 18.2496
rtibia 14.4598
rfoot -37.9904 -42.6126
rtoes 25.4322
lfemur 6.63063 -6.0171 -21.3769
ltibia 41.6549
lfoot 1.67941 -1.37563
ltoes 3.3434
2528
root 9.38358 15.3148 26.0387 -1.12797 12.8622 0.502937
lowerback 4.69508 -0.231172 -1.03822
upperback 0.247521 -0.326021 1.44921
thorax -2.36361 -0.143844 2.09509
lowerneck -7.02279 -2.46878 -7.12623
upperneck 48.0274 -2.17965 1.35871
head 20.2534 -1.85414 1.67268
rclavicle 1.9456e-014 6.75868e-015
rhumerus -39.0405 0.497802 -78.9001
rradius 28.661
rwrist 22.0843
rhand -7.08135 -48.745
rfingers 7.12502
rthumb 18.7926 -77.8572
lclavicle 1.9456e-014 6.75868e-015
lhumerus -36.9288 11.5209 83.1537
lradius 33.9438
lwrist -19.3865
lhand 0.105595 -29.5137
lfingers 7.12502
lthumb 25.6915 -1.22752
rfemur -15.5355 26.4785 18.9435
rtibia 14.3407
rfoot -36.2282 -42.1561
rtoes 24.5507
lfemur 6.06226 -5.49671 -20.8191
ltibia 43.0481
lfoot 3.16117 -1.74777
ltoes 0.963406
2529
root 9.35363 15.3342 26.1486 -1.19486 12.8256 0.574406
lowerback 4.83923 -0.240503 -1.12587
upperback 0.21931 -0.343915 1.43976
thorax -2.47223 -0.150658 2.13722
lowerneck -7.02377 -2.45136 -7.11701
upperneck 47.9825 -2.14995 1.34053
head 20.2172 -1.84297 1.66595
rclavicle -2.8861e-014 -1.59028e-015
rhumerus -38.982 0.642456 -78.8759
rradius 28.8797
rwrist 22.0424
rhand -6.7709 -48.2717
rfingers 7.12502
rthumb 19.0911 -77.3547
lclavicle -2.8861e-014 -1.59028e-015
lhumerus -36.5338 11.0243 83.3479
lradius 33.6633
lwrist -18.7525
lhand -0.213964 -30.105
lfingers 7.12502
lthumb 25.3854 -1.775
rfemur -14.9537 25.6044 19.4201
rtibia 14.3425
rfoot -34.6678 -41.6594
rtoes 23.7706
lfemur 5.51936 -5.03897 -20.5074
ltibia 44.3664
lfoot 4.79227 -2.26678
ltoes -0.750809
2530
root 9.32498 15.3518 26.2573 -1.20496 12.7802 0.677665
lowerback 4.91093 -0.223403 -1.23333
upperback 0.189159 -0.328359 1.40336
thorax -2.54381 -0.140966 2.15986
lowerneck -6.99843 -2.44526 -7.18541
upperneck 47.9452 -2.17918 1.45737
head 20.188 -1.85235 1.73263
rclavicle -1.78037e-014 5.56597e-015
rhumerus -38.8208 0.750444 -78.8137
rradius 29.0814
rwrist 22.3305
rhand -5.58793 -48.7495
rfingers 7.12502
rthumb 20.2284 -77.7162
lclavicle -1.78037e-014 5.56597e-015
lhumerus -36.2399 10.6735 83.4833
lradius 33.5753
lwrist -18.2068
lhand -0.17181 -30.2687
lfingers 7.12502
lthumb 25.4258 -1.94438
rfemur -14.339 24.8462 19.831
rtibia 14.1153
rfoot -32.6594 -41.6092
rtoes 22.5654
lfemur 4.89177 -4.80586 -20.3044
ltibia 45.6584
lfoot 6.36037 -2.25855
ltoes 2.32001
2531
root 9.29658 15.3534 26.369 -1.34626 12.6676 0.534788
lowerback 4.89205 -0.182704 -1.11486
upperback 0.226137 -0.267317 1.41098
thorax -2.49846 -0.112551 2.09643
lowerneck -6.86238 -2.4481 -7.32981
upperneck 47.7823 -2.29276 1.74516
head 20.0453 -1.88564 1.88376
rclavicle 1.16662e-014 -1.23246e-014
rhumerus -38.6364 0.79744 -78.7608
rradius 29.3466
rwrist 22.8455
rhand -4.03034 -49.7804
rfingers 7.12502
rthumb 21.7248 -78.5813
lclavicle 1.16662e-014 -1.23246e-014
lhumerus -36.0293 10.4067 83.5576
lradius 33.6677
lwrist -17.6806
lhand 0.311163 -29.9126
lfingers 7.12502
lthumb 25.8884 -1.65505
rfemur -13.6707 24.366 20.511
rtibia 13.8559
rfoot -30.8008 -41.6989
rtoes 21.6727
lfemur 4.52459 -4.53511 -19.8834
ltibia 46.891
lfoot 7.71377 -2.34549
ltoes 1.64016
2532
root 9.26895 15.3749 26.4825 -1.60172 12.5229 0.328489
lowerback 4.95891 -0.164475 -0.955107
upperback 0.305541 -0.233184 1.46823
thorax -2.4561 -0.0978888 2.06323
lowerneck -7.12904 -2.4994 -7.13735
upperneck 47.9527 -2.29089 1.49043
head 20.2397 -1.88549 1.71953
rclavicle -3.03271e-014 -9.14409e-015
rhumerus -38.4104 1.11351 -78.789
rradius 29.6319
rwrist 22.6825
rhand -3.50993 -49.7091
rfingers 7.12502
rthumb 22.2245 -78.4513
lclavicle -3.03271e-014 -9.14409e-015
lhumerus -35.953 9.95714 83.7411
lradius 34.172
lwrist -16.6935
lhand 0.947326 -29.4045
lfingers 7.12502
lthumb 26.4974 -1.23725
rfemur -12.8812 23.9123 21.3222
rtibia 13.6854
rfoot -29.2901 -41.5426
rtoes 20.5587
lfemur 3.96987 -4.5781 -19.4248
ltibia 48.149
lfoot 9.54758 -2.16811
ltoes 7.64115
2533
root 9.24327 15.3816 26.5856 -1.8639 12.3854 0.156808
lowerback 5.14705 -0.158471 -0.828815
upperback 0.372804 -0.216383 1.55312
thorax -2.49316 -0.0905148 2.07944
lowerneck -7.07318 -2.46253 -7.23872
upperneck 47.8121 -2.27108 1.6125
head 20.1227 -1.87926 1.80183
rclavicle 1.80024e-014 1.59028e-015
rhumerus -38.1091 1.61195 -78.791
rradius 29.879
rwrist 21.9762
rhand -3.96638 -48.487
rfingers 7.12502
rthumb 21.7862 -77.2808
lclavicle 1.80024e-014 1.59028e-015
lhumerus -36.0799 9.59548 84.0012
lradius 35.0469
lwrist -15.8399
lhand 1.54279 -29.1395
lfingers 7.12502
lthumb 27.0672 -1.05954
rfemur -12.1048 23.5549 22.0679
rtibia 13.484
rfoot -27.9349 -41.4416
rtoes 19.7209
lfemur 3.64308 -4.49304 -19.0176
ltibia 49.3731
lfoot 10.996 -2.40068
ltoes 8.50183
